<?xml version="1.0" encoding="UTF-8"?>
<svg width="23px" height="24px" viewBox="0 0 23 24" version="1.1" xmlns="http://www.w3.org/2000/svg" xmlns:xlink="http://www.w3.org/1999/xlink">
    <!-- Generator: Sketch 41.2 (35397) - http://www.bohemiancoding.com/sketch -->
    <title>ic-eye-open</title>
    <desc>Created with Sketch.</desc>
    <defs></defs>
    <g id="Page-1" stroke="none" stroke-width="1" fill="none" fill-rule="evenodd">
        <g id="ic-eye-open" transform="translate(1.000000, 6.000000)" stroke="#484848">
            <g id="Page-1">
                <g id="ic-eye-open">
                    <g id="Page-1">
                        <g id="ic-eye-open">
                            <g id="Registration-final">
                                <g id="Log-in-add-password">
                                    <g id="icEyeOpen">
                                        <path d="M20.45336,6.336591 C20.45336,6.336591 15.87498,11.77796 10.22668,11.77796 C4.578379,11.77796 0,6.336591 0,6.336591 C0,6.336591 4.578379,0.1697 10.22668,0.1697 C15.87498,0.1697 20.45336,6.336591 20.45336,6.336591 L20.45336,6.336591 L20.45336,6.336591 L20.45336,6.336591 Z" id="Stroke-1"></path>
                                        <path d="M13.753123,5.973833 C13.753123,7.976984 12.174335,9.601415 10.226681,9.601415 C8.279027,9.601415 6.700239,7.976984 6.700239,5.973833 C6.700239,3.970682 8.279027,2.34625 10.226681,2.34625 C12.174335,2.34625 13.753123,3.970682 13.753123,5.973833 L13.753123,5.973833 L13.753123,5.973833 L13.753123,5.973833 Z" id="Stroke-3"></path>
                                    </g>
                                </g>
                            </g>
                        </g>
                    </g>
                </g>
            </g>
        </g>
    </g>
</svg>