<?xml version="1.0" encoding="UTF-8"?>
<svg width="23px" height="24px" viewBox="0 0 23 24" version="1.1" xmlns="http://www.w3.org/2000/svg" xmlns:xlink="http://www.w3.org/1999/xlink">
    <!-- Generator: Sketch 41.2 (35397) - http://www.bohemiancoding.com/sketch -->
    <title>ic-eye-close</title>
    <desc>Created with Sketch.</desc>
    <defs></defs>
    <g id="Page-1" stroke="none" stroke-width="1" fill="none" fill-rule="evenodd">
        <g id="ic-eye-close" transform="translate(1.000000, 3.000000)" stroke="#484848">
            <g id="Page-1">
                <g id="ic-eye-close">
                    <g id="Page-1">
                        <g id="ic-eye-close">
                            <g id="Registration-final">
                                <g id="Desktop-Sign-up">
                                    <g id="icEyeClose-Copy-2">
                                        <path d="M17.141036,5.81673 C19.337583,7.387138 20.712083,8.995694 20.712083,8.995694 C20.712083,8.995694 16.075792,14.639768 10.356042,14.639768 C9.420785,14.639768 8.36054,14.552523 7.499203,14.293967" id="Stroke-1"></path>
                                        <path d="M3.5727993,12.146366 C1.3737473,10.571013 1.3941023,10.737379 -3.56999999e-05,8.99566 C-3.56999999e-05,8.99566 4.6366143,2.99095 10.3560043,2.99095 C11.1305643,2.99095 11.7726443,3.1604947 12.4986343,3.3441682" id="Stroke-3"></path>
                                        <path d="M6.784993,8.995692 C6.784993,7.028267 8.366968,5.46351 10.356042,5.46351" id="Stroke-5"></path>
                                        <path d="M13.927089,8.642473 C13.927089,10.610252 12.345114,12.174655 10.35604,12.174655" id="Stroke-7"></path>
                                        <path d="M18.926565,0.16524 L1.785525,17.47293" id="Stroke-9"></path>
                                    </g>
                                </g>
                            </g>
                        </g>
                    </g>
                </g>
            </g>
        </g>
    </g>
</svg>